<svg xmlns="http://www.w3.org/2000/svg" width="1544" height="500" viewBox="0 0 1544 500" role="img" aria-label="TOCflow banner">
  <defs>
    <linearGradient id="bg" x1="0" y1="0" x2="1" y2="1">
      <stop offset="0" stop-color="#27543d"/>
      <stop offset="0.5" stop-color="#2f6f4e"/>
      <stop offset="1" stop-color="#3a8a61"/>
    </linearGradient>
  </defs>
  <rect width="1544" height="500" fill="url(#bg)"/>
  <!-- subtle decorative outline on the right -->
  <g opacity="0.12" fill="#ffffff">
    <circle cx="1140" cy="150" r="13"/><rect x="1168" y="139" width="240" height="22" rx="11"/>
    <circle cx="1170" cy="220" r="11"/><rect x="1196" y="210" width="200" height="20" rx="10"/>
    <circle cx="1170" cy="285" r="11"/><rect x="1196" y="275" width="200" height="20" rx="10"/>
    <circle cx="1200" cy="350" r="10"/><rect x="1224" y="341" width="170" height="18" rx="9"/>
  </g>
  <!-- icon mark -->
  <rect x="90" y="170" width="160" height="160" rx="36" fill="#ffffff"/>
  <g>
    <circle cx="128" cy="212" r="11" fill="#2f6f4e"/>
    <rect x="150" y="203" width="74" height="18" rx="9" fill="#2f6f4e"/>
    <circle cx="150" cy="262" r="9" fill="#7cc6a1"/>
    <rect x="168" y="253" width="56" height="18" rx="9" fill="#a9ddc4"/>
    <circle cx="150" cy="306" r="9" fill="#7cc6a1"/>
    <rect x="168" y="297" width="56" height="18" rx="9" fill="#a9ddc4"/>
  </g>
  <!-- wordmark -->
  <text x="300" y="248" font-family="-apple-system,BlinkMacSystemFont,'Segoe UI',Roboto,Helvetica,Arial,sans-serif" font-size="96" font-weight="800" letter-spacing="-2" fill="#ffffff">TOCflow</text>
  <text x="304" y="312" font-family="-apple-system,BlinkMacSystemFont,'Segoe UI',Roboto,Helvetica,Arial,sans-serif" font-size="34" font-weight="500" fill="#d6efe1">A server-rendered Table of Contents block for WordPress</text>
  <text x="304" y="362" font-family="-apple-system,BlinkMacSystemFont,'Segoe UI',Roboto,Helvetica,Arial,sans-serif" font-size="24" font-weight="600" letter-spacing="2" fill="#9fd3b8">AUTO-BUILT · ACCESSIBLE · SEO-FRIENDLY · FREE</text>
</svg>
